<svg width="16" height="16" viewBox="0 0 16 16" fill="none" xmlns="http://www.w3.org/2000/svg">
<rect width="16" height="16" rx="8" fill="#F7F7F7"/>
<path d="M7.41828 8.18035L7.41752 8.0033C7.41752 7.26749 7.46061 6.59666 7.52551 6.15935L7.58238 5.88742C7.61401 5.74339 7.6556 5.5794 7.69897 5.49569C7.85769 5.18946 8.16805 5 8.50023 5H8.52914C8.74568 5.00716 9.20059 5.19717 9.20059 5.20378C9.93258 5.51092 11.3448 6.43786 11.997 7.09869L12.1865 7.29709C12.2362 7.35086 12.2919 7.4145 12.3265 7.46411C12.4422 7.61722 12.5 7.80668 12.5 7.99614C12.5 8.20764 12.4351 8.40426 12.3124 8.56508L12.1176 8.77524L12.074 8.82008C11.4822 9.46172 9.93694 10.5109 9.12859 10.832L9.00654 10.8788C8.85968 10.9314 8.65391 10.9942 8.52914 11C8.37041 11 8.21878 10.9631 8.07424 10.8904C7.89369 10.7885 7.74969 10.6277 7.67006 10.4382C7.61933 10.3071 7.5397 9.91335 7.5397 9.90619C7.46669 9.50913 7.42436 8.88259 7.41828 8.18035ZM3.5 7.99978C3.5 7.58065 3.83654 7.24083 4.25163 7.24083L6.10124 7.40441C6.42687 7.40441 6.69087 7.67097 6.69087 7.99978C6.69087 8.32914 6.42687 8.59515 6.10124 8.59515L4.25163 8.75873C3.83654 8.75873 3.5 8.41891 3.5 7.99978Z" fill="#5D5C5D"/>
</svg>
