<svg width="33" height="32" viewBox="0 0 33 32" fill="none" xmlns="http://www.w3.org/2000/svg">
<path d="M23.014 0C28.438 0 32.07 3.808 32.07 9.472V22.5456C32.07 28.1936 28.438 32 23.014 32H9.14201C3.71801 32 0.0700073 28.1936 0.0700073 22.5456V9.472C0.0700073 3.808 3.71801 0 9.14201 0H23.014ZM20.886 11.1536C20.342 10.608 19.462 10.608 18.902 11.1536L16.07 14L13.222 11.1536C12.662 10.608 11.782 10.608 11.238 11.1536C10.694 11.6976 10.694 12.5936 11.238 13.136L14.086 15.9856L11.238 18.8176C10.694 19.3776 10.694 20.2576 11.238 20.8C11.51 21.072 11.878 21.2176 12.23 21.2176C12.598 21.2176 12.95 21.072 13.222 20.8L16.07 17.9696L18.918 20.8C19.19 21.0896 19.542 21.2176 19.894 21.2176C20.262 21.2176 20.614 21.072 20.886 20.8C21.43 20.2576 21.43 19.3776 20.886 18.8336L18.038 15.9856L20.886 13.136C21.43 12.5936 21.43 11.6976 20.886 11.1536Z" fill="#F26666"/>
</svg>
