<svg width="33" height="32" viewBox="0 0 33 32" fill="none" xmlns="http://www.w3.org/2000/svg">
<path d="M16.0701 0C24.9181 0 32.0701 7.168 32.0701 16C32.0701 24.848 24.9181 32 16.0701 32C7.23807 32 0.0700684 24.848 0.0700684 16C0.0700684 7.168 7.23807 0 16.0701 0ZM15.5101 7.888C14.8541 7.888 14.3101 8.416 14.3101 9.088V17.168C14.3101 17.584 14.5341 17.968 14.9021 18.192L21.1741 21.936C21.3661 22.048 21.5741 22.112 21.7981 22.112C22.1981 22.112 22.5981 21.904 22.8221 21.52C23.1581 20.96 22.9821 20.224 22.4061 19.872L16.7101 16.48V9.088C16.7101 8.416 16.1661 7.888 15.5101 7.888Z" fill="#EFBE24"/>
</svg>
