<svg width="33" height="32" viewBox="0 0 33 32" fill="none" xmlns="http://www.w3.org/2000/svg">
<path d="M23.0141 0C28.4381 0 32.0701 3.808 32.0701 9.472V22.5456C32.0701 28.192 28.4381 32 23.0141 32H9.14207C3.71807 32 0.0700684 28.192 0.0700684 22.5456V9.472C0.0700684 3.808 3.71807 0 9.14207 0H23.0141ZM22.7581 11.2C22.2141 10.656 21.3181 10.656 20.7741 11.2L14.1661 17.808L11.3661 15.008C10.8221 14.464 9.92607 14.464 9.38207 15.008C8.83807 15.552 8.83807 16.432 9.38207 16.992L13.1901 20.784C13.4621 21.056 13.8141 21.184 14.1661 21.184C14.5341 21.184 14.8861 21.056 15.1581 20.784L22.7581 13.184C23.3021 12.64 23.3021 11.76 22.7581 11.2Z" fill="#5EDE99"/>
</svg>
