<svg width="33" height="32" viewBox="0 0 33 32" fill="none" xmlns="http://www.w3.org/2000/svg">
<path fill-rule="evenodd" clip-rule="evenodd" d="M0.0701294 16C0.0701294 7.1696 7.23813 0 16.0701 0C24.9181 0 32.0701 7.1696 32.0701 16C32.0701 24.8336 24.9181 32 16.0701 32C7.23813 32 0.0701294 24.8336 0.0701294 16ZM14.6623 9.93609C14.6623 9.16969 15.3023 8.52809 16.0703 8.52809C16.8383 8.52809 17.4623 9.16969 17.4623 9.93609V17.0081C17.4623 17.7777 16.8383 18.4001 16.0703 18.4001C15.3023 18.4001 14.6623 17.7777 14.6623 17.0081V9.93609ZM16.086 23.4896C15.302 23.4896 14.678 22.8496 14.678 22.0816C14.678 21.3136 15.302 20.6896 16.07 20.6896C16.854 20.6896 17.478 21.3136 17.478 22.0816C17.478 22.8496 16.854 23.4896 16.086 23.4896Z" fill="#F26666"/>
</svg>
