<svg width="24" height="23" viewBox="0 0 24 23" fill="none" xmlns="http://www.w3.org/2000/svg">
<g filter="url(#filter0_d_4162_570)">
<path fill-rule="evenodd" clip-rule="evenodd" d="M10.3243 19.106C10.8423 19.683 11.5073 20 12.1973 20H12.1983C12.8913 20 13.5593 19.683 14.0783 19.105C14.3563 18.798 14.8303 18.773 15.1373 19.05C15.4453 19.327 15.4703 19.802 15.1933 20.109C14.3853 21.006 13.3223 21.5 12.1983 21.5H12.1963C11.0753 21.499 10.0143 21.005 9.20929 20.108C8.93229 19.801 8.95729 19.326 9.26529 19.05C9.57329 18.772 10.0473 18.797 10.3243 19.106ZM12.2471 0C16.6921 0 19.6781 3.462 19.6781 6.695C19.6781 8.358 20.1011 9.063 20.5501 9.811C20.9941 10.549 21.4971 11.387 21.4971 12.971C21.1481 17.018 16.9231 17.348 12.2471 17.348C7.57109 17.348 3.34509 17.018 3.00007 13.035C2.99709 11.387 3.50009 10.549 3.94409 9.811L4.10083 9.54716C4.48676 8.88386 4.81609 8.16235 4.81609 6.695C4.81609 3.462 7.80209 0 12.2471 0ZM12.2471 1.5C8.75209 1.5 6.31609 4.238 6.31609 6.695C6.31609 8.774 5.73909 9.735 5.22909 10.583C4.82009 11.264 4.49709 11.802 4.49709 12.971C4.66409 14.857 5.90909 15.848 12.2471 15.848C18.5501 15.848 19.8341 14.813 20.0001 12.906C19.9971 11.802 19.6741 11.264 19.2651 10.583C18.7551 9.735 18.1781 8.774 18.1781 6.695C18.1781 4.238 15.7421 1.5 12.2471 1.5Z" fill="#5D5C5D"/>
</g>
<defs>
<filter id="filter0_d_4162_570" x="-0.999939" y="0" width="26.497" height="29.5" filterUnits="userSpaceOnUse" color-interpolation-filters="sRGB">
<feFlood flood-opacity="0" result="BackgroundImageFix"/>
<feColorMatrix in="SourceAlpha" type="matrix" values="0 0 0 0 0 0 0 0 0 0 0 0 0 0 0 0 0 0 127 0" result="hardAlpha"/>
<feOffset dy="4"/>
<feGaussianBlur stdDeviation="2"/>
<feComposite in2="hardAlpha" operator="out"/>
<feColorMatrix type="matrix" values="0 0 0 0 0 0 0 0 0 0 0 0 0 0 0 0 0 0 0.25 0"/>
<feBlend mode="normal" in2="BackgroundImageFix" result="effect1_dropShadow_4162_570"/>
<feBlend mode="normal" in="SourceGraphic" in2="effect1_dropShadow_4162_570" result="shape"/>
</filter>
</defs>
</svg>
