<svg width="67" height="71" viewBox="0 0 67 71" fill="none" xmlns="http://www.w3.org/2000/svg">
<path fill-rule="evenodd" clip-rule="evenodd" d="M35.4829 27.2913C36.6869 27.2913 37.6669 28.2643 37.6669 29.4603V32.5363C37.6669 32.7933 37.8729 32.9993 38.1369 33.0053H40.0429C41.5449 33.0053 42.7659 31.7993 42.7659 30.3173V21.5933C42.7589 21.0833 42.5159 20.6033 42.0989 20.2843L35.5059 15.0263C34.6209 14.3253 33.3829 14.3253 32.4949 15.0283L25.9469 20.2823C25.5139 20.6113 25.2709 21.0913 25.2659 21.6103V30.3173C25.2659 31.7993 26.4869 33.0053 27.9889 33.0053H29.9129C30.1839 33.0053 30.4039 32.7903 30.4039 32.5263C30.4039 32.4683 30.4109 32.4103 30.4229 32.3553V29.4603C30.4229 28.2713 31.3969 27.2993 32.5919 27.2913H35.4829ZM40.0429 34.5053H38.1189C37.0169 34.4793 36.1669 33.6143 36.1669 32.5363V29.4603C36.1669 29.0913 35.8599 28.7913 35.4829 28.7913H32.5969C32.2279 28.7933 31.9229 29.0943 31.9229 29.4603V32.5263C31.9229 32.6013 31.9129 32.6733 31.8919 32.7413C31.7839 33.7313 30.9379 34.5053 29.9129 34.5053H27.9889C25.6599 34.5053 23.7659 32.6263 23.7659 30.3173V21.6033C23.7759 20.6093 24.2339 19.6993 25.0249 19.1003L31.5599 13.8553C32.9989 12.7153 35.0039 12.7153 36.4399 13.8533L43.0219 19.1033C43.7949 19.6923 44.2529 20.6003 44.2659 21.5823V30.3173C44.2659 32.6263 42.3719 34.5053 40.0429 34.5053Z" fill="#BEBEBE"/>
<path d="M25.305 47.456V56H24.069V52.172H19.281V56H18.057V47.456H19.281V51.152H24.069V47.456H25.305ZM29.7874 56.084C29.1954 56.084 28.6754 55.956 28.2274 55.7C27.7794 55.444 27.4314 55.08 27.1834 54.608C26.9434 54.136 26.8234 53.584 26.8234 52.952C26.8234 52.32 26.9434 51.768 27.1834 51.296C27.4314 50.816 27.7794 50.448 28.2274 50.192C28.6754 49.936 29.1954 49.808 29.7874 49.808C30.3714 49.808 30.8874 49.936 31.3354 50.192C31.7834 50.448 32.1274 50.816 32.3674 51.296C32.6154 51.768 32.7394 52.32 32.7394 52.952C32.7394 53.584 32.6154 54.136 32.3674 54.608C32.1274 55.08 31.7834 55.444 31.3354 55.7C30.8874 55.956 30.3714 56.084 29.7874 56.084ZM29.7754 55.124C30.3354 55.124 30.7634 54.94 31.0594 54.572C31.3554 54.204 31.5034 53.664 31.5034 52.952C31.5034 52.256 31.3514 51.72 31.0474 51.344C30.7514 50.968 30.3314 50.78 29.7874 50.78C29.2354 50.78 28.8074 50.968 28.5034 51.344C28.1994 51.72 28.0474 52.256 28.0474 52.952C28.0474 53.664 28.1954 54.204 28.4914 54.572C28.7954 54.94 29.2234 55.124 29.7754 55.124ZM41.0561 49.808C42.4001 49.808 43.0721 50.616 43.0721 52.232V56H41.8601V52.292C41.8601 51.772 41.7681 51.392 41.5841 51.152C41.4081 50.912 41.1201 50.792 40.7201 50.792C40.2561 50.792 39.8881 50.952 39.6161 51.272C39.3521 51.592 39.2201 52.028 39.2201 52.58V56H38.0081V52.292C38.0081 51.772 37.9161 51.392 37.7321 51.152C37.5561 50.912 37.2681 50.792 36.8681 50.792C36.4041 50.792 36.0361 50.952 35.7641 51.272C35.4921 51.592 35.3561 52.028 35.3561 52.58V56H34.1561V51.656C34.1561 51.024 34.1241 50.456 34.0601 49.952H35.1881L35.2961 50.96C35.4721 50.592 35.7241 50.308 36.0521 50.108C36.3801 49.908 36.7641 49.808 37.2041 49.808C38.1401 49.808 38.7521 50.196 39.0401 50.972C39.2241 50.612 39.4921 50.328 39.8441 50.12C40.2041 49.912 40.6081 49.808 41.0561 49.808ZM49.9684 53H45.6484C45.6884 54.416 46.3324 55.124 47.5804 55.124C48.2764 55.124 48.9124 54.896 49.4884 54.44L49.8604 55.304C49.5884 55.544 49.2404 55.736 48.8164 55.88C48.4004 56.016 47.9804 56.084 47.5564 56.084C46.5884 56.084 45.8284 55.808 45.2764 55.256C44.7244 54.696 44.4484 53.932 44.4484 52.964C44.4484 52.348 44.5684 51.8 44.8084 51.32C45.0564 50.84 45.4004 50.468 45.8404 50.204C46.2804 49.94 46.7804 49.808 47.3404 49.808C48.1564 49.808 48.7964 50.072 49.2604 50.6C49.7324 51.128 49.9684 51.86 49.9684 52.796V53ZM47.3644 50.708C46.9084 50.708 46.5364 50.844 46.2484 51.116C45.9604 51.388 45.7764 51.776 45.6964 52.28H48.9004C48.8524 51.768 48.6964 51.38 48.4324 51.116C48.1684 50.844 47.8124 50.708 47.3644 50.708Z" fill="#BEBEBE"/>
</svg>
