<svg width="69" height="72" viewBox="0 0 69 72" fill="none" xmlns="http://www.w3.org/2000/svg">
<path d="M1.76611 1H67.7661" stroke="#5EDE99" stroke-width="2" stroke-linecap="round"/>
<path d="M31.9009 33.7733V30.7156C31.9009 29.9351 32.5383 29.3023 33.3245 29.3023H36.1987C36.5763 29.3023 36.9384 29.4512 37.2054 29.7163C37.4724 29.9813 37.6224 30.3408 37.6224 30.7156V33.7733C37.62 34.0978 37.7482 34.4099 37.9785 34.6402C38.2088 34.8705 38.5222 35 38.8491 35H40.8099C41.7257 35.0023 42.6049 34.6428 43.2533 34.0008C43.9017 33.3588 44.2661 32.487 44.2661 31.5778V22.8669C44.2661 22.1325 43.9382 21.4358 43.3707 20.9647L36.7001 15.6759C35.5398 14.7486 33.8772 14.7785 32.7515 15.747L26.2331 20.9647C25.6389 21.422 25.2837 22.1206 25.2661 22.8669V31.5689C25.2661 33.4639 26.8135 35 28.7223 35H30.6384C31.3173 35 31.8691 34.4562 31.874 33.7822L31.9009 33.7733Z" fill="#5EDE99"/>
<path d="M26.305 48.456V57H25.069V53.172H20.281V57H19.057V48.456H20.281V52.152H25.069V48.456H26.305ZM30.7874 57.084C30.1954 57.084 29.6754 56.956 29.2274 56.7C28.7794 56.444 28.4314 56.08 28.1834 55.608C27.9434 55.136 27.8234 54.584 27.8234 53.952C27.8234 53.32 27.9434 52.768 28.1834 52.296C28.4314 51.816 28.7794 51.448 29.2274 51.192C29.6754 50.936 30.1954 50.808 30.7874 50.808C31.3714 50.808 31.8874 50.936 32.3354 51.192C32.7834 51.448 33.1274 51.816 33.3674 52.296C33.6154 52.768 33.7394 53.32 33.7394 53.952C33.7394 54.584 33.6154 55.136 33.3674 55.608C33.1274 56.08 32.7834 56.444 32.3354 56.7C31.8874 56.956 31.3714 57.084 30.7874 57.084ZM30.7754 56.124C31.3354 56.124 31.7634 55.94 32.0594 55.572C32.3554 55.204 32.5034 54.664 32.5034 53.952C32.5034 53.256 32.3514 52.72 32.0474 52.344C31.7514 51.968 31.3314 51.78 30.7874 51.78C30.2354 51.78 29.8074 51.968 29.5034 52.344C29.1994 52.72 29.0474 53.256 29.0474 53.952C29.0474 54.664 29.1954 55.204 29.4914 55.572C29.7954 55.94 30.2234 56.124 30.7754 56.124ZM42.0561 50.808C43.4001 50.808 44.0721 51.616 44.0721 53.232V57H42.8601V53.292C42.8601 52.772 42.7681 52.392 42.5841 52.152C42.4081 51.912 42.1201 51.792 41.7201 51.792C41.2561 51.792 40.8881 51.952 40.6161 52.272C40.3521 52.592 40.2201 53.028 40.2201 53.58V57H39.0081V53.292C39.0081 52.772 38.9161 52.392 38.7321 52.152C38.5561 51.912 38.2681 51.792 37.8681 51.792C37.4041 51.792 37.0361 51.952 36.7641 52.272C36.4921 52.592 36.3561 53.028 36.3561 53.58V57H35.1561V52.656C35.1561 52.024 35.1241 51.456 35.0601 50.952H36.1881L36.2961 51.96C36.4721 51.592 36.7241 51.308 37.0521 51.108C37.3801 50.908 37.7641 50.808 38.2041 50.808C39.1401 50.808 39.7521 51.196 40.0401 51.972C40.2241 51.612 40.4921 51.328 40.8441 51.12C41.2041 50.912 41.6081 50.808 42.0561 50.808ZM50.9684 54H46.6484C46.6884 55.416 47.3324 56.124 48.5804 56.124C49.2764 56.124 49.9124 55.896 50.4884 55.44L50.8604 56.304C50.5884 56.544 50.2404 56.736 49.8164 56.88C49.4004 57.016 48.9804 57.084 48.5564 57.084C47.5884 57.084 46.8284 56.808 46.2764 56.256C45.7244 55.696 45.4484 54.932 45.4484 53.964C45.4484 53.348 45.5684 52.8 45.8084 52.32C46.0564 51.84 46.4004 51.468 46.8404 51.204C47.2804 50.94 47.7804 50.808 48.3404 50.808C49.1564 50.808 49.7964 51.072 50.2604 51.6C50.7324 52.128 50.9684 52.86 50.9684 53.796V54ZM48.3644 51.708C47.9084 51.708 47.5364 51.844 47.2484 52.116C46.9604 52.388 46.7764 52.776 46.6964 53.28H49.9004C49.8524 52.768 49.6964 52.38 49.4324 52.116C49.1684 51.844 48.8124 51.708 48.3644 51.708Z" fill="#5EDE99"/>
</svg>
