<svg width="75" height="72" viewBox="0 0 75 72" fill="none" xmlns="http://www.w3.org/2000/svg">
<path d="M1.26611 1H73.2661" stroke="#5EDE99" stroke-width="2" stroke-linecap="round"/>
<path d="M37.2711 15C39.951 15 42.1543 17.1059 42.2661 19.7743H42.24C42.2431 19.8519 42.2282 19.9291 42.1964 20H42.3526C43.5696 20 44.844 20.8435 45.355 22.8798L45.4105 23.1201L46.1794 29.3147C46.7327 33.2657 44.5711 34.9273 41.6223 34.9977L41.4246 35H33.1346C30.1379 35 27.8287 33.908 28.3364 29.5836L28.371 29.3147L29.1488 23.1201C29.5323 20.9272 30.8197 20.0622 32.0602 20.0033L32.1978 20H32.276C32.2628 19.9253 32.2628 19.849 32.276 19.7743C32.3878 17.1059 34.5911 15 37.2711 15ZM34.3631 23.3293C33.875 23.3293 33.4793 23.7366 33.4793 24.2389C33.4793 24.7413 33.875 25.1486 34.3631 25.1486C34.8512 25.1486 35.2469 24.7413 35.2469 24.2389L35.24 24.1248C35.1855 23.6763 34.8137 23.3293 34.3631 23.3293ZM40.1519 23.3293C39.6638 23.3293 39.2681 23.7366 39.2681 24.2389C39.2681 24.7413 39.6638 25.1486 40.1519 25.1486C40.64 25.1486 41.0357 24.7413 41.0357 24.2389C41.0357 23.7366 40.64 23.3293 40.1519 23.3293ZM37.2319 16.3024C35.3078 16.3024 33.748 17.8568 33.748 19.7743C33.7611 19.849 33.7611 19.9253 33.748 20H40.7593C40.7315 19.9279 40.7167 19.8515 40.7158 19.7743C40.7158 17.8568 39.156 16.3024 37.2319 16.3024Z" fill="#5EDE99"/>
<path d="M26.8758 48.456V57H25.7598V51.132L23.2278 57H22.3758L19.8078 51.168L19.8198 57H18.7038V48.456H19.6998L22.8078 55.512L25.8798 48.456H26.8758ZM34.2994 50.952V57H33.0994V55.968C32.9234 56.328 32.6594 56.604 32.3074 56.796C31.9634 56.988 31.5594 57.084 31.0954 57.084C30.5594 57.084 30.0874 56.956 29.6794 56.7C29.2794 56.444 28.9674 56.084 28.7434 55.62C28.5194 55.148 28.4074 54.6 28.4074 53.976C28.4074 53.352 28.5194 52.8 28.7434 52.32C28.9754 51.84 29.2954 51.468 29.7034 51.204C30.1114 50.94 30.5754 50.808 31.0954 50.808C31.5594 50.808 31.9634 50.908 32.3074 51.108C32.6514 51.3 32.9154 51.576 33.0994 51.936V50.952H34.2994ZM31.3834 56.124C31.9274 56.124 32.3474 55.936 32.6434 55.56C32.9474 55.176 33.0994 54.64 33.0994 53.952C33.0994 53.256 32.9474 52.72 32.6434 52.344C32.3474 51.968 31.9234 51.78 31.3714 51.78C30.8274 51.78 30.3994 51.976 30.0874 52.368C29.7834 52.752 29.6314 53.288 29.6314 53.976C29.6314 54.656 29.7834 55.184 30.0874 55.56C30.3994 55.936 30.8314 56.124 31.3834 56.124ZM39.0919 50.808C39.2759 50.808 39.4679 50.836 39.6679 50.892L39.6439 51.996C39.4279 51.916 39.1919 51.876 38.9359 51.876C38.3839 51.876 37.9679 52.044 37.6879 52.38C37.4159 52.708 37.2799 53.124 37.2799 53.628V57H36.0799V52.656C36.0799 52.024 36.0479 51.456 35.9839 50.952H37.1119L37.2199 52.044C37.3799 51.644 37.6279 51.34 37.9639 51.132C38.2999 50.916 38.6759 50.808 39.0919 50.808ZM44.6836 57L41.7916 54.144V57H40.5916V48.168H41.7916V53.688L44.4796 50.964H45.9796L43.0876 53.868L46.2316 57H44.6836ZM52.0329 54H47.7129C47.7529 55.416 48.3969 56.124 49.6449 56.124C50.3409 56.124 50.9769 55.896 51.5529 55.44L51.9249 56.304C51.6529 56.544 51.3049 56.736 50.8809 56.88C50.4649 57.016 50.0449 57.084 49.6209 57.084C48.6529 57.084 47.8929 56.808 47.3409 56.256C46.7889 55.696 46.5129 54.932 46.5129 53.964C46.5129 53.348 46.6329 52.8 46.8729 52.32C47.1209 51.84 47.4649 51.468 47.9049 51.204C48.3449 50.94 48.8449 50.808 49.4049 50.808C50.2209 50.808 50.8609 51.072 51.3249 51.6C51.7969 52.128 52.0329 52.86 52.0329 53.796V54ZM49.4289 51.708C48.9729 51.708 48.6009 51.844 48.3129 52.116C48.0249 52.388 47.8409 52.776 47.7609 53.28H50.9649C50.9169 52.768 50.7609 52.38 50.4969 52.116C50.2329 51.844 49.8769 51.708 49.4289 51.708ZM54.9371 51.888V54.924C54.9371 55.34 55.0251 55.636 55.2011 55.812C55.3851 55.98 55.6371 56.064 55.9571 56.064C56.1651 56.064 56.3771 56.032 56.5931 55.968V56.952C56.3291 57.04 56.0291 57.084 55.6931 57.084C55.0691 57.084 54.5851 56.908 54.2411 56.556C53.8971 56.204 53.7251 55.692 53.7251 55.02V51.888H52.5491V50.952H53.7251V49.44L54.9371 49.02V50.952H56.6051V51.888H54.9371Z" fill="#5EDE99"/>
</svg>
