<svg width="73" height="71" viewBox="0 0 73 71" fill="none" xmlns="http://www.w3.org/2000/svg">
<path fill-rule="evenodd" clip-rule="evenodd" d="M36.0469 14.0004C38.6608 14.0004 40.8201 15.992 41.0863 18.5393L41.1606 18.5402C42.6106 18.5402 44.3736 19.5032 44.9686 22.2042L45.7576 28.3112C46.0406 30.2822 45.6866 31.8632 44.7036 32.9972C43.7256 34.1252 42.1776 34.7222 40.2266 34.7222H31.8786C29.7356 34.7222 28.2426 34.1972 27.3136 33.1182C26.3806 32.0362 26.0686 30.4132 26.3866 28.2952L27.1626 22.2692C27.6726 19.5062 29.5376 18.5402 30.9816 18.5402C31.1063 17.3906 31.6246 16.2971 32.4469 15.4774C33.3919 14.5384 34.6949 14.0004 36.0259 14.0004H36.0469ZM41.1606 20.0402H30.9816C30.5406 20.0402 29.0666 20.2182 28.6436 22.5022L27.8716 28.5022C27.6206 30.1852 27.8146 31.4032 28.4496 32.1402C29.0766 32.8682 30.1986 33.2222 31.8786 33.2222H40.2266C41.2746 33.2222 42.7056 33.0132 43.5696 32.0152C44.2556 31.2242 44.4916 30.0462 44.2716 28.5132L43.4926 22.4612C43.1606 20.9702 42.2846 20.0402 41.1606 20.0402ZM38.9634 22.8243C39.3774 22.8243 39.7364 23.1603 39.7364 23.5743C39.7364 23.9883 39.4234 24.3243 39.0094 24.3243H38.9634C38.5494 24.3243 38.2134 23.9883 38.2134 23.5743C38.2134 23.1603 38.5494 22.8243 38.9634 22.8243ZM33.1333 22.8243C33.5473 22.8243 33.9063 23.1603 33.9063 23.5743C33.9063 23.9883 33.5923 24.3243 33.1783 24.3243H33.1333C32.7193 24.3243 32.3833 23.9883 32.3833 23.5743C32.3833 23.1603 32.7193 22.8243 33.1333 22.8243ZM36.0439 15.5004H36.0289C35.0879 15.5004 34.1709 15.8794 33.5059 16.5404C32.9642 17.0796 32.61 17.7886 32.4954 18.5397L39.5746 18.54C39.3177 16.8217 37.8318 15.5004 36.0439 15.5004Z" fill="#BEBEBE"/>
<path d="M25.8758 47.456V56H24.7598V50.132L22.2278 56H21.3758L18.8078 50.168L18.8198 56H17.7038V47.456H18.6998L21.8078 54.512L24.8798 47.456H25.8758ZM33.2994 49.952V56H32.0994V54.968C31.9234 55.328 31.6594 55.604 31.3074 55.796C30.9634 55.988 30.5594 56.084 30.0954 56.084C29.5594 56.084 29.0874 55.956 28.6794 55.7C28.2794 55.444 27.9674 55.084 27.7434 54.62C27.5194 54.148 27.4074 53.6 27.4074 52.976C27.4074 52.352 27.5194 51.8 27.7434 51.32C27.9754 50.84 28.2954 50.468 28.7034 50.204C29.1114 49.94 29.5754 49.808 30.0954 49.808C30.5594 49.808 30.9634 49.908 31.3074 50.108C31.6514 50.3 31.9154 50.576 32.0994 50.936V49.952H33.2994ZM30.3834 55.124C30.9274 55.124 31.3474 54.936 31.6434 54.56C31.9474 54.176 32.0994 53.64 32.0994 52.952C32.0994 52.256 31.9474 51.72 31.6434 51.344C31.3474 50.968 30.9234 50.78 30.3714 50.78C29.8274 50.78 29.3994 50.976 29.0874 51.368C28.7834 51.752 28.6314 52.288 28.6314 52.976C28.6314 53.656 28.7834 54.184 29.0874 54.56C29.3994 54.936 29.8314 55.124 30.3834 55.124ZM38.0919 49.808C38.2759 49.808 38.4679 49.836 38.6679 49.892L38.6439 50.996C38.4279 50.916 38.1919 50.876 37.9359 50.876C37.3839 50.876 36.9679 51.044 36.6879 51.38C36.4159 51.708 36.2799 52.124 36.2799 52.628V56H35.0799V51.656C35.0799 51.024 35.0479 50.456 34.9839 49.952H36.1119L36.2199 51.044C36.3799 50.644 36.6279 50.34 36.9639 50.132C37.2999 49.916 37.6759 49.808 38.0919 49.808ZM43.6836 56L40.7916 53.144V56H39.5916V47.168H40.7916V52.688L43.4796 49.964H44.9796L42.0876 52.868L45.2316 56H43.6836ZM51.0329 53H46.7129C46.7529 54.416 47.3969 55.124 48.6449 55.124C49.3409 55.124 49.9769 54.896 50.5529 54.44L50.9249 55.304C50.6529 55.544 50.3049 55.736 49.8809 55.88C49.4649 56.016 49.0449 56.084 48.6209 56.084C47.6529 56.084 46.8929 55.808 46.3409 55.256C45.7889 54.696 45.5129 53.932 45.5129 52.964C45.5129 52.348 45.6329 51.8 45.8729 51.32C46.1209 50.84 46.4649 50.468 46.9049 50.204C47.3449 49.94 47.8449 49.808 48.4049 49.808C49.2209 49.808 49.8609 50.072 50.3249 50.6C50.7969 51.128 51.0329 51.86 51.0329 52.796V53ZM48.4289 50.708C47.9729 50.708 47.6009 50.844 47.3129 51.116C47.0249 51.388 46.8409 51.776 46.7609 52.28H49.9649C49.9169 51.768 49.7609 51.38 49.4969 51.116C49.2329 50.844 48.8769 50.708 48.4289 50.708ZM53.9371 50.888V53.924C53.9371 54.34 54.0251 54.636 54.2011 54.812C54.3851 54.98 54.6371 55.064 54.9571 55.064C55.1651 55.064 55.3771 55.032 55.5931 54.968V55.952C55.3291 56.04 55.0291 56.084 54.6931 56.084C54.0691 56.084 53.5851 55.908 53.2411 55.556C52.8971 55.204 52.7251 54.692 52.7251 54.02V50.888H51.5491V49.952H52.7251V48.44L53.9371 48.02V49.952H55.6051V50.888H53.9371Z" fill="#BEBEBE"/>
</svg>
