<svg width="68" height="71" viewBox="0 0 68 71" fill="none" xmlns="http://www.w3.org/2000/svg">
<path fill-rule="evenodd" clip-rule="evenodd" d="M41.8399 30.1932C41.8399 33.4892 37.3199 33.8702 33.9209 33.8702L33.6776 33.8699C31.5121 33.8647 25.9999 33.728 25.9999 30.1732C25.9999 26.9444 30.3382 26.5129 33.7114 26.4967L34.1641 26.4964C36.3295 26.5016 41.8399 26.6383 41.8399 30.1932ZM33.9209 27.9962C29.6599 27.9962 27.4999 28.7282 27.4999 30.1732C27.4999 31.6312 29.6599 32.3702 33.9209 32.3702C38.1809 32.3702 40.3399 31.6382 40.3399 30.1932C40.3399 28.7352 38.1809 27.9962 33.9209 27.9962ZM33.9209 13.9998C36.8489 13.9998 39.2299 16.3818 39.2299 19.3098C39.2299 22.2378 36.8489 24.6188 33.9209 24.6188H33.8889C30.9669 24.6098 28.5999 22.2268 28.6098 19.3068C28.6098 16.3818 30.9919 13.9998 33.9209 13.9998ZM33.9209 15.4278C31.7799 15.4278 30.0379 17.1688 30.0379 19.3098C30.0309 21.4438 31.7599 23.1838 33.8919 23.1918L33.9209 23.9058V23.1918C36.0609 23.1918 37.8019 21.4498 37.8019 19.3098C37.8019 17.1688 36.0609 15.4278 33.9209 15.4278Z" fill="#BEBEBE"/>
<path d="M17.0722 56V47.54H20.6602C21.5642 47.54 22.2562 47.76 22.7362 48.2C23.2242 48.632 23.4682 49.232 23.4682 50C23.4682 50.768 23.2242 51.372 22.7362 51.812C22.2562 52.252 21.5642 52.472 20.6602 52.472H18.3202V56H17.0722ZM18.3202 51.476H20.5282C21.0962 51.476 21.5242 51.348 21.8122 51.092C22.1002 50.836 22.2442 50.472 22.2442 50C22.2442 49.536 22.1002 49.176 21.8122 48.92C21.5242 48.664 21.0962 48.536 20.5282 48.536H18.3202V51.476ZM24.7214 56V51.452C24.7214 51.204 24.7134 50.956 24.6974 50.708C24.6894 50.452 24.6734 50.2 24.6494 49.952H25.8254L25.9574 51.512H25.7654C25.8454 51.136 25.9814 50.824 26.1734 50.576C26.3654 50.328 26.5974 50.144 26.8694 50.024C27.1494 49.904 27.4414 49.844 27.7454 49.844C27.8734 49.844 27.9814 49.852 28.0694 49.868C28.1574 49.876 28.2454 49.892 28.3334 49.916L28.3214 50.996C28.1854 50.94 28.0654 50.908 27.9614 50.9C27.8654 50.884 27.7454 50.876 27.6014 50.876C27.2494 50.876 26.9494 50.956 26.7014 51.116C26.4534 51.268 26.2654 51.476 26.1374 51.74C26.0094 52.004 25.9454 52.288 25.9454 52.592V56H24.7214ZM31.7788 56.108C31.1788 56.108 30.6588 55.984 30.2188 55.736C29.7788 55.48 29.4388 55.12 29.1988 54.656C28.9588 54.184 28.8388 53.624 28.8388 52.976C28.8388 52.328 28.9588 51.772 29.1988 51.308C29.4388 50.836 29.7788 50.476 30.2188 50.228C30.6588 49.972 31.1788 49.844 31.7788 49.844C32.3788 49.844 32.8988 49.972 33.3388 50.228C33.7868 50.476 34.1308 50.836 34.3708 51.308C34.6188 51.772 34.7428 52.328 34.7428 52.976C34.7428 53.624 34.6188 54.184 34.3708 54.656C34.1308 55.12 33.7868 55.48 33.3388 55.736C32.8988 55.984 32.3788 56.108 31.7788 56.108ZM31.7788 55.16C32.3068 55.16 32.7268 54.976 33.0388 54.608C33.3508 54.24 33.5068 53.696 33.5068 52.976C33.5068 52.256 33.3508 51.716 33.0388 51.356C32.7268 50.988 32.3068 50.804 31.7788 50.804C31.2588 50.804 30.8428 50.988 30.5308 51.356C30.2188 51.716 30.0628 52.256 30.0628 52.976C30.0628 53.696 30.2148 54.24 30.5188 54.608C30.8308 54.976 31.2508 55.16 31.7788 55.16ZM36.4609 56V50.888H35.2849V49.952H36.7969L36.4609 50.264V49.304C36.4609 48.592 36.6369 48.052 36.9889 47.684C37.3489 47.308 37.8689 47.12 38.5489 47.12C38.7089 47.12 38.8809 47.132 39.0649 47.156C39.2489 47.18 39.4049 47.22 39.5329 47.276V48.26C39.4369 48.22 39.3169 48.188 39.1729 48.164C39.0289 48.132 38.8889 48.116 38.7529 48.116C38.4009 48.116 38.1289 48.22 37.9369 48.428C37.7529 48.628 37.6609 48.944 37.6609 49.376V50.192L37.4809 49.952H41.5009V56H40.2889V50.888H37.6729V56H36.4609ZM40.1929 48.692V47.432H41.5969V48.692H40.1929ZM43.2728 56V47.168H44.4848V56H43.2728ZM49.057 56.108C48.081 56.108 47.313 55.832 46.753 55.28C46.193 54.728 45.913 53.964 45.913 52.988C45.913 52.356 46.033 51.804 46.273 51.332C46.521 50.86 46.861 50.496 47.293 50.24C47.733 49.976 48.241 49.844 48.817 49.844C49.385 49.844 49.861 49.964 50.245 50.204C50.629 50.444 50.921 50.784 51.121 51.224C51.321 51.656 51.421 52.168 51.421 52.76V53.144H46.861V52.448H50.593L50.389 52.604C50.389 52.004 50.253 51.54 49.981 51.212C49.717 50.876 49.333 50.708 48.829 50.708C48.269 50.708 47.837 50.904 47.533 51.296C47.229 51.68 47.077 52.212 47.077 52.892V53.012C47.077 53.724 47.249 54.26 47.593 54.62C47.945 54.98 48.441 55.16 49.081 55.16C49.433 55.16 49.761 55.112 50.065 55.016C50.377 54.912 50.673 54.744 50.953 54.512L51.349 55.34C51.069 55.588 50.729 55.78 50.329 55.916C49.929 56.044 49.505 56.108 49.057 56.108Z" fill="#BEBEBE"/>
</svg>
