<svg width="71" height="72" viewBox="0 0 71 72" fill="none" xmlns="http://www.w3.org/2000/svg">
<path d="M1.76611 1H69.7661" stroke="#5EDE99" stroke-width="2" stroke-linecap="round"/>
<path d="M35.7661 28.1739C40.1047 28.1739 43.7661 28.8789 43.7661 31.599C43.7661 34.32 40.0807 35 35.7661 35C31.4285 35 27.7661 34.295 27.7661 31.575C27.7661 28.8539 31.4515 28.1739 35.7661 28.1739ZM35.7661 15C38.7052 15 41.0601 17.354 41.0601 20.2911C41.0601 23.2281 38.7052 25.5831 35.7661 25.5831C32.828 25.5831 30.4721 23.2281 30.4721 20.2911C30.4721 17.354 32.828 15 35.7661 15Z" fill="#5EDE99"/>
<path d="M18.8559 48.456H22.4079C23.3039 48.456 23.9999 48.676 24.4959 49.116C24.9999 49.548 25.2519 50.14 25.2519 50.892C25.2519 51.644 24.9959 52.24 24.4839 52.68C23.9799 53.112 23.2879 53.328 22.4079 53.328H20.0919V57H18.8559V48.456ZM22.2639 52.344C22.8559 52.344 23.2999 52.22 23.5959 51.972C23.8999 51.724 24.0519 51.364 24.0519 50.892C24.0519 50.428 23.8999 50.072 23.5959 49.824C23.2999 49.576 22.8559 49.452 22.2639 49.452H20.0919V52.344H22.2639ZM29.5411 50.808C29.7251 50.808 29.9171 50.836 30.1171 50.892L30.0931 51.996C29.8771 51.916 29.6411 51.876 29.3851 51.876C28.8331 51.876 28.4171 52.044 28.1371 52.38C27.8651 52.708 27.7291 53.124 27.7291 53.628V57H26.5291V52.656C26.5291 52.024 26.4971 51.456 26.4331 50.952H27.5611L27.6691 52.044C27.8291 51.644 28.0771 51.34 28.4131 51.132C28.7491 50.916 29.1251 50.808 29.5411 50.808ZM33.5276 57.084C32.9356 57.084 32.4156 56.956 31.9676 56.7C31.5196 56.444 31.1716 56.08 30.9236 55.608C30.6836 55.136 30.5636 54.584 30.5636 53.952C30.5636 53.32 30.6836 52.768 30.9236 52.296C31.1716 51.816 31.5196 51.448 31.9676 51.192C32.4156 50.936 32.9356 50.808 33.5276 50.808C34.1116 50.808 34.6276 50.936 35.0756 51.192C35.5236 51.448 35.8676 51.816 36.1076 52.296C36.3556 52.768 36.4796 53.32 36.4796 53.952C36.4796 54.584 36.3556 55.136 36.1076 55.608C35.8676 56.08 35.5236 56.444 35.0756 56.7C34.6276 56.956 34.1116 57.084 33.5276 57.084ZM33.5156 56.124C34.0756 56.124 34.5036 55.94 34.7996 55.572C35.0956 55.204 35.2436 54.664 35.2436 53.952C35.2436 53.256 35.0916 52.72 34.7876 52.344C34.4916 51.968 34.0716 51.78 33.5276 51.78C32.9756 51.78 32.5476 51.968 32.2436 52.344C31.9396 52.72 31.7876 53.256 31.7876 53.952C31.7876 54.664 31.9356 55.204 32.2316 55.572C32.5356 55.94 32.9636 56.124 33.5156 56.124ZM39.4449 50.952H43.2729V57H42.0609V51.888H39.4449V57H38.2329V51.888H37.0569V50.952H38.2329V50.244C38.2329 49.724 38.3089 49.312 38.4609 49.008C38.6209 48.704 38.8769 48.484 39.2289 48.348C39.5889 48.204 40.0769 48.132 40.6929 48.132H41.1009V49.044H40.8009C40.4089 49.044 40.1209 49.08 39.9369 49.152C39.7529 49.216 39.6249 49.344 39.5529 49.536C39.4809 49.72 39.4449 50.012 39.4449 50.412V50.952ZM43.3809 48.252V49.56H41.9529V48.252H43.3809ZM45.033 48.168H46.233V57H45.033V48.168ZM53.1696 54H48.8496C48.8896 55.416 49.5336 56.124 50.7816 56.124C51.4776 56.124 52.1136 55.896 52.6896 55.44L53.0616 56.304C52.7896 56.544 52.4416 56.736 52.0176 56.88C51.6016 57.016 51.1816 57.084 50.7576 57.084C49.7896 57.084 49.0296 56.808 48.4776 56.256C47.9256 55.696 47.6496 54.932 47.6496 53.964C47.6496 53.348 47.7696 52.8 48.0096 52.32C48.2576 51.84 48.6016 51.468 49.0416 51.204C49.4816 50.94 49.9816 50.808 50.5416 50.808C51.3576 50.808 51.9976 51.072 52.4616 51.6C52.9336 52.128 53.1696 52.86 53.1696 53.796V54ZM50.5656 51.708C50.1096 51.708 49.7376 51.844 49.4496 52.116C49.1616 52.388 48.9776 52.776 48.8976 53.28H52.1016C52.0536 52.768 51.8976 52.38 51.6336 52.116C51.3696 51.844 51.0136 51.708 50.5656 51.708Z" fill="#5EDE99"/>
</svg>
